<?xml version="1.0" standalone="no"?>
<!DOCTYPE svg PUBLIC "-//W3C//DTD SVG 20010904//EN"
 "http://www.w3.org/TR/2001/REC-SVG-20010904/DTD/svg10.dtd">
<svg version="1.0" xmlns="http://www.w3.org/2000/svg"
 width="650.000000pt" height="650.000000pt" viewBox="0 0 650.000000 650.000000"
 preserveAspectRatio="xMidYMid meet">

<g transform="translate(0.000000,650.000000) scale(0.100000,-0.100000)"
fill="#000000" stroke="none">
<path d="M4518 6006 c-312 -133 -570 -245 -573 -248 -3 -2 92 -52 210 -109
207 -100 216 -105 210 -129 -4 -14 -37 -88 -75 -165 -400 -818 -1065 -1391
-1947 -1679 -370 -120 -724 -181 -1128 -193 -136 -4 -198 -9 -175 -14 96 -21
413 -70 550 -86 214 -23 654 -23 840 0 410 52 780 170 1095 351 489 280 882
695 1279 1348 69 114 80 127 97 118 10 -6 105 -62 210 -126 105 -63 194 -113
196 -110 7 6 -210 1286 -217 1285 -3 -1 -260 -110 -572 -243z"/>
<path d="M4162 2288 l3 -1573 688 -3 687 -2 0 1575 0 1575 -690 0 -690 0 2
-1572z"/>
<path d="M2550 1835 l0 -1125 688 2 687 3 3 1123 2 1122 -690 0 -690 0 0
-1125z"/>
<path d="M940 1460 l0 -750 685 0 685 0 0 750 0 750 -685 0 -685 0 0 -750z"/>
<path d="M660 375 l0 -125 2590 0 2590 0 0 125 0 125 -2590 0 -2590 0 0 -125z"/>
</g>
</svg>
