<?xml version="1.0" standalone="no"?>
<!DOCTYPE svg PUBLIC "-//W3C//DTD SVG 20010904//EN"
 "http://www.w3.org/TR/2001/REC-SVG-20010904/DTD/svg10.dtd">
<svg version="1.0" xmlns="http://www.w3.org/2000/svg"
 width="650.000000pt" height="650.000000pt" viewBox="0 0 650.000000 650.000000"
 preserveAspectRatio="xMidYMid meet">

<g transform="translate(0.000000,650.000000) scale(0.100000,-0.100000)"
fill="#000000" stroke="none">
<path d="M2890 5792 l0 -188 -40 4 c-22 2 -40 0 -40 -5 0 -5 -18 -7 -40 -5
-22 2 -40 0 -40 -4 0 -5 -22 -10 -50 -11 -57 -2 -253 -48 -395 -93 -452 -144
-779 -399 -943 -735 -42 -85 -92 -225 -96 -268 -2 -18 -7 -40 -11 -49 -4 -9
-4 -22 0 -28 3 -5 1 -10 -5 -10 -8 0 -11 -15 -8 -45 2 -25 0 -45 -4 -45 -11 0
-8 -319 3 -326 5 -3 7 -10 3 -15 -8 -13 16 -149 26 -149 4 0 6 -9 3 -20 -3
-11 0 -20 6 -20 5 0 8 -7 5 -15 -4 -8 -2 -15 4 -15 6 0 8 -9 5 -20 -3 -12 0
-20 6 -20 7 0 9 -4 6 -10 -3 -5 -2 -10 4 -10 6 0 8 -7 5 -15 -4 -8 -1 -15 6
-15 6 0 8 -4 5 -10 -3 -5 -1 -10 5 -10 6 0 8 -4 5 -10 -3 -5 -2 -10 4 -10 6 0
8 -7 5 -15 -4 -8 -1 -15 6 -15 6 0 9 -4 6 -9 -3 -5 1 -12 10 -15 8 -3 12 -10
9 -16 -3 -5 -1 -10 5 -10 6 0 9 -4 5 -9 -3 -5 1 -16 9 -23 7 -8 16 -23 20 -35
4 -12 13 -24 21 -27 8 -3 15 -10 15 -16 0 -12 6 -19 102 -125 113 -124 236
-216 419 -314 99 -53 340 -153 399 -167 48 -11 49 -11 55 -14 3 -1 10 -4 15
-5 6 -1 12 -4 15 -5 3 -1 10 -4 15 -5 6 -1 12 -4 15 -5 3 -1 10 -4 15 -5 6 -1
12 -4 15 -5 3 -1 10 -4 15 -5 6 -1 12 -4 15 -5 3 -1 8 -3 13 -4 4 -1 85 -21
180 -46 l172 -45 0 -582 c0 -460 -3 -583 -12 -583 -18 0 -89 42 -129 76 -71
60 -139 140 -180 211 -42 75 -100 251 -114 346 -6 44 -9 48 -28 44 -12 -3 -97
-14 -189 -23 -93 -10 -168 -20 -168 -24 0 -3 -20 -4 -45 -2 -25 2 -45 0 -45
-5 0 -5 -18 -7 -40 -5 -22 2 -40 0 -40 -5 0 -4 -20 -7 -45 -5 -25 2 -45 0 -45
-5 0 -4 -20 -7 -45 -5 -25 2 -45 0 -45 -5 0 -4 -20 -7 -45 -5 -25 2 -45 0 -45
-6 0 -5 -10 -7 -22 -5 -13 2 -138 -10 -278 -26 -140 -17 -267 -31 -282 -31
-24 0 -28 -4 -28 -30 0 -16 4 -30 9 -30 5 0 11 -24 15 -53 11 -85 52 -225 97
-327 22 -52 45 -100 50 -106 5 -6 6 -14 2 -17 -3 -4 -1 -7 6 -7 7 0 9 -5 6
-10 -3 -6 -1 -10 5 -10 6 0 8 -4 5 -10 -3 -5 -1 -10 5 -10 6 0 9 -4 6 -9 -3
-5 1 -12 10 -15 8 -3 13 -10 10 -15 -3 -5 1 -12 10 -15 9 -4 14 -9 10 -13 -3
-3 3 -13 14 -20 11 -8 18 -18 15 -23 -3 -4 2 -11 11 -14 9 -4 14 -9 11 -12 -3
-4 7 -17 24 -31 16 -14 29 -28 29 -33 0 -5 34 -43 76 -85 220 -222 526 -377
936 -475 147 -35 331 -64 365 -57 12 2 23 0 23 -5 0 -5 26 -8 58 -7 l57 3 3
-197 2 -197 150 0 150 0 0 2890 0 2890 -150 0 -150 0 0 -188z m0 -1487 c0
-330 -2 -375 -15 -375 -21 0 -155 71 -155 82 0 4 -4 8 -10 8 -19 0 -91 87
-122 148 -60 120 -39 258 56 369 20 22 59 56 88 74 29 18 55 36 58 39 10 11
56 29 78 29 l22 1 0 -375z"/>
<path d="M3330 3090 l0 -2890 120 0 120 0 0 203 0 203 35 -4 c19 -2 35 0 35 6
0 5 11 7 24 5 38 -8 277 34 472 82 387 95 575 182 804 371 86 71 200 193 200
214 0 5 10 16 22 24 12 9 18 16 13 16 -6 1 0 9 12 19 12 10 19 21 16 25 -3 3
2 8 11 12 9 3 13 10 10 15 -3 5 2 12 10 15 9 3 13 10 10 15 -3 5 0 9 6 9 6 0
8 5 5 10 -3 6 1 13 9 16 9 3 14 10 11 14 -3 5 3 13 12 19 10 6 15 11 10 11 -4
0 9 33 29 73 20 39 48 101 61 136 30 81 73 255 73 299 0 17 5 32 10 32 6 0 10
52 10 136 0 87 -4 133 -10 129 -6 -4 -10 7 -10 25 0 65 -51 235 -102 339 -28
58 -50 109 -50 114 1 4 -3 7 -10 7 -6 0 -8 3 -5 7 4 3 -2 13 -13 20 -11 8 -18
18 -15 23 3 4 -2 11 -11 14 -9 4 -14 9 -11 13 4 3 -5 15 -19 25 -14 11 -23 22
-21 24 5 5 -144 154 -154 154 -4 0 -16 10 -26 23 -10 13 -26 26 -35 30 -10 3
-18 11 -18 17 0 5 -7 10 -15 10 -9 0 -18 7 -21 15 -4 8 -12 15 -20 15 -8 0
-14 5 -14 10 0 6 -7 10 -15 10 -9 0 -18 7 -21 15 -4 8 -12 15 -20 15 -8 0 -14
5 -14 11 0 5 -4 7 -10 4 -5 -3 -10 -1 -10 5 0 6 -5 8 -10 5 -6 -3 -13 1 -16 9
-3 9 -10 13 -15 10 -5 -3 -9 0 -9 6 0 6 -5 8 -10 5 -6 -3 -13 1 -16 9 -3 9
-10 13 -15 10 -5 -3 -9 0 -9 6 0 6 -4 8 -10 5 -5 -3 -10 -1 -10 5 0 6 -4 8
-10 5 -5 -3 -10 -1 -10 5 0 6 -4 8 -10 5 -5 -3 -10 -1 -10 5 0 6 -4 8 -10 5
-5 -3 -10 -1 -10 5 0 6 -5 8 -10 5 -6 -3 -13 1 -16 9 -3 9 -10 13 -15 10 -5
-3 -9 0 -9 6 0 6 -4 8 -10 5 -5 -3 -10 -1 -10 6 0 7 -3 9 -7 6 -3 -4 -17 0
-30 8 -13 9 -23 13 -23 11 0 -3 -30 9 -67 26 -170 77 -549 203 -810 269 l-53
13 0 468 c0 532 -8 493 89 434 99 -61 186 -171 242 -304 17 -42 33 -79 34 -80
7 -7 1360 221 1373 231 8 7 9 13 2 22 -5 6 -7 15 -3 18 3 4 0 13 -7 22 -7 8
-9 15 -5 15 4 0 1 7 -6 17 -8 9 -12 17 -10 17 9 2 -21 76 -30 76 -6 0 -7 5 -4
10 3 6 1 10 -5 10 -6 0 -8 5 -5 10 3 6 1 10 -5 10 -6 0 -8 5 -5 10 3 6 1 10
-5 10 -6 0 -9 4 -5 10 3 5 -3 18 -14 29 -11 11 -17 22 -13 25 3 3 -1 6 -8 6
-7 0 -11 3 -7 6 13 14 -82 135 -192 244 -237 237 -543 397 -966 505 -76 20
-163 37 -192 38 -29 1 -53 6 -53 11 0 4 -18 6 -40 4 -22 -2 -40 0 -40 5 0 5
-20 7 -45 5 -25 -2 -45 1 -45 5 0 5 -7 7 -15 3 -13 -5 -15 19 -15 179 l0 185
-120 0 -120 0 0 -2890z m437 -685 c108 -53 144 -76 196 -127 236 -232 178
-556 -129 -715 -78 -41 -218 -93 -248 -93 -14 0 -16 52 -16 506 l0 507 32 -7
c18 -3 92 -35 165 -71z"/>
</g>
</svg>
