<?xml version="1.0" standalone="no"?>
<!DOCTYPE svg PUBLIC "-//W3C//DTD SVG 20010904//EN"
 "http://www.w3.org/TR/2001/REC-SVG-20010904/DTD/svg10.dtd">
<svg version="1.0" xmlns="http://www.w3.org/2000/svg"
 width="650.000000pt" height="650.000000pt" viewBox="0 0 650.000000 650.000000"
 preserveAspectRatio="xMidYMid meet">

<g transform="translate(0.000000,650.000000) scale(0.100000,-0.100000)"
fill="#000000" stroke="none">
<path d="M4035 4244 c-11 -3 -81 -16 -155 -31 -221 -42 -411 -131 -507 -236
-24 -26 -43 -50 -43 -54 0 -5 -10 -19 -23 -33 -12 -14 -29 -40 -36 -57 -7 -18
-17 -33 -22 -33 -5 0 -9 -6 -9 -13 0 -7 -11 -28 -25 -47 -14 -19 -25 -42 -25
-52 0 -10 -4 -18 -10 -18 -5 0 -10 -5 -10 -12 0 -6 -14 -41 -32 -77 -17 -36
-41 -93 -53 -126 l-22 -60 -54 -6 c-30 -3 -88 -18 -129 -32 -41 -14 -119 -39
-172 -56 -168 -54 -323 -135 -401 -209 -94 -91 -161 -303 -156 -497 2 -67 9
-117 21 -150 33 -87 23 -85 324 -85 l264 0 0 -47 c0 -51 17 -124 43 -184 35
-84 163 -199 222 -199 8 0 15 -4 15 -10 0 -6 28 -10 65 -10 37 0 65 4 65 10 0
6 7 10 17 10 40 0 161 90 188 139 46 86 59 124 68 204 l11 87 723 0 723 0 0
-42 c1 -41 19 -130 36 -173 33 -87 167 -213 227 -215 9 0 17 -4 17 -10 0 -6
28 -10 65 -10 37 0 65 4 65 10 0 6 7 10 15 10 29 0 93 39 142 87 75 73 123
192 123 304 l0 39 253 0 c213 0 256 2 275 16 25 17 52 74 52 110 0 13 5 24 10
24 6 0 10 40 10 100 0 60 -4 100 -10 100 -5 0 -10 12 -10 28 -1 15 -7 53 -14
84 -40 164 -102 262 -212 333 -76 49 -238 123 -319 145 -16 5 -66 20 -110 35
-113 38 -181 55 -216 55 -26 0 -32 6 -50 48 -35 82 -143 295 -173 342 -136
210 -222 285 -417 367 -100 42 -129 51 -276 83 -87 19 -286 26 -348 14z m528
-408 c134 -55 165 -80 252 -213 54 -81 125 -210 125 -225 0 -4 -144 -8 -320
-8 l-320 0 0 253 c0 140 2 256 5 259 11 10 169 -31 258 -66z m-553 -191 l0
-255 -315 0 c-173 0 -315 3 -315 7 0 16 125 253 156 295 53 74 115 112 239
151 95 30 179 51 223 56 9 1 12 -56 12 -254z m846 -580 c26 -17 56 -73 48 -87
-10 -16 -44 -7 -55 15 -16 30 -28 37 -70 37 -43 0 -62 -18 -57 -57 3 -24 11
-31 63 -49 90 -31 95 -34 110 -65 20 -39 19 -78 -5 -117 -49 -79 -182 -67
-223 21 -23 49 -22 67 6 67 17 0 26 -9 35 -34 28 -77 151 -68 152 11 0 27 -26
45 -98 68 -69 23 -106 65 -98 113 6 37 38 78 71 93 28 12 91 4 121 -16z m289
9 c30 -14 65 -64 65 -93 0 -24 -45 -10 -62 19 -15 26 -22 30 -63 30 -39 0 -47
-4 -57 -26 -17 -38 -1 -55 78 -84 71 -26 114 -69 114 -112 0 -91 -115 -148
-197 -98 -59 36 -89 112 -47 118 17 2 26 -6 40 -35 34 -69 133 -68 146 2 7 35
-8 48 -91 80 -74 28 -101 55 -101 102 0 42 22 76 60 95 43 22 72 23 115 2z
m-1775 -19 c0 -24 -2 -24 -92 -27 l-93 -3 -3 -52 -3 -53 90 0 c90 0 91 0 91
-25 0 -25 -1 -25 -90 -25 l-90 0 0 -60 0 -60 100 0 100 0 0 -25 0 -25 -125 0
-125 0 0 190 0 190 120 0 120 0 0 -25z m130 -35 c19 -33 37 -60 40 -60 3 0 22
27 41 60 28 50 38 60 62 60 15 0 27 -3 27 -8 0 -4 -22 -45 -49 -91 l-49 -84
59 -96 c52 -87 56 -96 38 -99 -34 -6 -45 4 -83 72 -21 37 -41 64 -46 61 -5 -3
-26 -35 -46 -70 -31 -57 -39 -65 -65 -65 -16 0 -29 3 -29 6 0 4 25 48 56 100
l56 93 -51 85 c-28 46 -51 87 -51 90 0 3 13 6 28 6 24 0 33 -9 62 -60z m433
49 c40 -21 57 -51 57 -106 0 -44 -5 -58 -29 -85 -28 -31 -33 -33 -100 -33
l-71 0 0 -72 c0 -71 -1 -73 -25 -73 l-25 0 0 190 0 190 86 0 c47 0 95 -5 107
-11z m327 -18 c33 -32 45 -69 36 -106 -7 -27 -35 -60 -57 -67 -11 -4 -11 -9 2
-29 23 -35 79 -137 79 -143 0 -4 -12 -6 -27 -6 -24 0 -33 9 -57 56 -47 89 -62
104 -107 104 l-39 0 0 -80 c0 -79 0 -80 -25 -80 l-25 0 0 190 0 190 96 0 c92
0 97 -1 124 -29z m340 4 c0 -24 -2 -24 -92 -27 l-93 -3 -3 -52 -3 -53 90 0
c90 0 91 0 91 -25 0 -25 -1 -25 -90 -25 l-90 0 0 -60 0 -60 100 0 100 0 0 -25
0 -25 -125 0 -125 0 0 190 0 190 120 0 120 0 0 -25z"/>
<path d="M3790 2965 l0 -65 59 0 c70 0 91 15 91 64 0 48 -25 66 -93 66 l-57 0
0 -65z"/>
<path d="M4090 2970 l0 -60 49 0 c89 0 127 31 100 82 -17 33 -28 38 -91 38
l-58 0 0 -60z"/>
<path d="M920 2796 c-58 -12 -150 -54 -150 -68 0 -4 -49 -8 -108 -8 -116 0
-236 -23 -289 -56 -52 -32 -103 -87 -103 -111 0 -47 89 -118 188 -149 27 -9
98 -17 169 -19 111 -3 126 -6 168 -31 62 -36 165 -63 240 -64 68 0 192 29 226
54 31 21 60 20 108 -5 161 -83 404 -52 516 66 17 17 37 40 45 51 65 87 10 229
-115 296 -133 73 -359 73 -470 1 -27 -18 -41 -17 -101 12 -95 45 -211 56 -324
31z"/>
</g>
</svg>
