<?xml version="1.0" standalone="no"?><!DOCTYPE svg PUBLIC "-//W3C//DTD SVG 20010904//EN""http://www.w3.org/TR/2001/REC-SVG-20010904/DTD/svg10.dtd"><svg version="1.0" xmlns="http://www.w3.org/2000/svg" width="650.000000pt" height="650.000000pt" viewBox="0 0 650.000000 650.000000" preserveAspectRatio="xMidYMid meet"><g transform="translate(0.000000,650.000000) scale(0.100000,-0.100000)"fill="#000000" stroke="none"><path d="M1786 6038 c32 -488 206 -1011 429 -1290 l45 -58 981 0 c957 0 983 -1 1082 -21 86 -18 125 -20 247 -16 203 7 366 51 572 154 101 50 107 61 90 157 -13 66 -37 99 -74 99 -13 0 -60 -21 -104 -45 -144 -82 -324 -168 -412 -198 -80 -27 -252 -52 -252 -37 0 3 50 32 112 64 200 102 382 258 492 423 54 81 116 199 116 222 0 23 -73 76 -115 84 -56 10 -68 -1 -115 -98 -97 -200 -222 -357 -374 -470 -71 -53 -106 -69 -78 -36 21 26 104 226 146 353 74 222 123 472 141 718 l6 87 -1471 0 -1471 0 7 -92z"/><path d="M2160 4507 c-321 -140 -597 -331 -850 -586 -421 -424 -676 -943 -767 -1556 -26 -180 -24 -568 5 -725 86 -470 300 -777 681 -973 294 -152 654 -235 1211 -279 228 -18 1392 -18 1620 0 800 63 1259 222 1559 537 172 182 276 405 333 715 29 157 31 545 5 725 -91 613 -346 1132 -767 1556 -230 232 -437 381 -729 527 l-174 87 -1026 2 -1026 3 -75 -33z m1270 -782 l0 -144 33 -5 c201 -31 293 -48 347 -66 108 -35 103 -19 58 -220 -22 -96 -41 -176 -43 -178 -2 -2 -57 10 -122 27 -385 99 -582 75 -608 -77 -23 -139 93 -233 470 -382 179 -71 238 -104 296 -168 121 -132 165 -319 124 -517 -42 -201 -202 -376 -412 -450 -37 -14 -83 -25 -100 -25 l-33 0 0 -175 0 -175 -170 0 -170 0 0 158 0 158 -112 13 c-147 17 -315 60 -412 105 -70 32 -77 37 -70 58 42 135 117 364 119 367 2 1 48 -15 102 -37 164 -67 249 -86 398 -86 141 -1 212 14 275 56 59 41 75 71 75 147 0 58 -4 73 -26 102 -36 47 -101 80 -254 130 -164 53 -253 93 -363 165 -113 74 -192 157 -238 249 -33 66 -37 83 -41 176 -9 185 37 310 156 422 77 72 176 125 298 159 l83 23 0 168 0 167 170 0 170 0 0 -145z"/></g></svg>
