<?xml version="1.0" standalone="no"?>
<!DOCTYPE svg PUBLIC "-//W3C//DTD SVG 20010904//EN"
 "http://www.w3.org/TR/2001/REC-SVG-20010904/DTD/svg10.dtd">
<svg version="1.0" xmlns="http://www.w3.org/2000/svg"
 width="650.000000pt" height="650.000000pt" viewBox="0 0 650.000000 650.000000"
 preserveAspectRatio="xMidYMid meet">

<g transform="translate(0.000000,650.000000) scale(0.100000,-0.100000)"
fill="#000000" stroke="none">
<path d="M3960 5641 c0 -6 -8 -11 -18 -11 -37 0 -139 -32 -207 -65 -69 -33
-73 -33 -235 -39 -253 -8 -419 -55 -505 -143 -60 -62 -44 -119 52 -182 99 -66
270 -102 483 -102 130 0 137 -1 185 -29 119 -67 312 -100 471 -80 93 11 191
39 266 75 l37 18 68 -31 c109 -50 190 -66 338 -65 99 0 148 5 208 21 202 55
346 182 347 306 0 117 -129 235 -324 295 -37 11 -79 21 -92 21 -13 0 -24 5
-24 11 0 8 -42 10 -147 6 -154 -5 -205 -15 -315 -64 l-58 -26 -58 26 c-103 46
-169 59 -324 64 -105 4 -148 2 -148 -6z"/>
<path d="M4686 4629 l-26 -20 0 -1060 c0 -1002 -1 -1059 -17 -1059 -10 0 -499
367 -1088 815 -588 448 -1081 818 -1094 822 -18 4 -29 0 -43 -17 -17 -21 -18
-60 -18 -771 0 -498 -3 -749 -10 -749 -6 0 -463 345 -1016 766 -554 421 -1013
768 -1021 771 -21 8 -63 -17 -63 -39 0 -10 -4 -18 -10 -18 -14 0 -14 -3789 1
-3827 5 -15 16 -31 22 -35 7 -4 1338 -8 2958 -8 2841 0 2946 1 2962 18 17 19
24 88 9 94 -4 2 -90 478 -190 1058 -100 580 -188 1066 -195 1080 -7 14 -24 30
-37 37 -23 12 -31 48 -217 1070 -170 932 -195 1060 -214 1076 -19 15 -51 17
-344 17 -311 0 -323 -1 -349 -21z m-2978 -2355 c21 -14 22 -22 22 -159 0 -137
-1 -145 -22 -159 -19 -14 -77 -16 -428 -16 -351 0 -409 2 -428 16 -21 14 -22
22 -22 159 0 137 1 145 22 159 19 14 77 16 428 16 351 0 409 -2 428 -16z
m2113 -5 c19 -19 20 -30 17 -161 -3 -125 -5 -141 -22 -154 -16 -12 -92 -14
-432 -14 -362 0 -415 2 -428 16 -13 13 -16 42 -16 159 0 117 3 146 16 159 13
14 66 16 430 16 406 0 414 0 435 -21z"/>
<path d="M270 4443 l1 -98 1000 -760 c550 -418 1011 -768 1024 -778 l25 -19 0
99 0 99 -1012 770 c-556 423 -1017 773 -1025 777 -10 6 -13 -11 -13 -90z"/>
<path d="M2430 4373 l1 -98 1000 -760 c549 -418 1008 -766 1020 -774 19 -14
20 -12 17 86 l-3 101 -1005 764 c-553 420 -1011 767 -1017 772 -10 5 -13 -15
-13 -91z"/>
</g>
</svg>
