<svg xmlns="http://www.w3.org/2000/svg" viewBox="0 0 495.81 85.42"><defs><style>.cls-1,.cls-2{fill:#0087ca;}.cls-1{fill-rule:evenodd;}</style></defs><title>logo Syscomp sem software</title><g id="Page_1" data-name="Page 1"><g id="Camada_1-2" data-name="Camada 1"><path class="cls-1" d="M233.15,236.87h-24c-.56,5.87-2.07,12.89,1.12,18.07,9.81,15.95,18.88,23.85,23.11,30.1,3.06,4.52,3.8,11-2.18,13.5-1,.43-2.14.24-3.68.24-10.53,0-31.63-.16-54.46,0v21.31h58.55c13.39-.8,23.48-8.54,26.13-20.66,2.47-11.26-1.24-23.81-8.92-30.87a7.29,7.29,0,0,1-.7-.91c-4.87-6.19-12-13.38-15.11-19.82-2.06-4.24-.27-6.57.16-10.95Z" transform="translate(-173.04 -236.8)"/><path class="cls-1" d="M350.4,237.14h-24c-.56,5.87-2.07,12.88,1.12,18.07,9.81,16,18.88,23.85,23.11,30.1,3.07,4.52,3.8,11-2.18,13.5-1,.43-2.14.24-3.68.24-8,0-22.26-.08-38.71-.07l.18,21.36h42.62c13.39-.79,23.48-8.53,26.13-20.65,2.47-11.26-1.24-23.81-8.91-30.87a7.14,7.14,0,0,1-.71-.91c-4.87-6.19-12-13.38-15.1-19.82-2.06-4.24-.28-6.57.15-11Z" transform="translate(-173.04 -236.8)"/><path class="cls-1" d="M254.06,236.86h23c.07,22.59-1.66,33.73,9.93,33.91s9.84-11.29,9.86-33.91h23.22c.06,20.71,2.53,42.2-20.69,53l-.05,30.59H276.11V290c-23.58-8.25-22.79-30.14-22.06-53.17Z" transform="translate(-173.04 -236.8)"/><path class="cls-1" d="M428.67,236.86h-6.3c-69.64-2.73-62.72,89.12,0,83.77h6.3V300.16c-45.68,4.9-39.16-50.56,0-42.83V236.86Z" transform="translate(-173.04 -236.8)"/><path class="cls-1" d="M511.31,237.06h66.62a25.33,25.33,0,0,1,25.26,25.25v58.92h-24l-.06-56.63c0-3.71-1.75-6.19-6.46-6.51l-37.61.06v63.08H511.31V237.06Z" transform="translate(-173.04 -236.8)"/><rect class="cls-2" x="374.25" y="33.09" width="22.51" height="51.25"/><path class="cls-1" d="M610.09,237.48h23.1c27.15-.9,35.16,11.26,35.64,25.19s-6.28,28.15-35.64,27.39v31.06h-23.1v-51.7l28.52-.06c7.58.31,9.61-10.49,0-11l-28.52-.11V237.48Z" transform="translate(-173.04 -236.8)"/><path class="cls-1" d="M467.4,237.34c24.41-.06,42.84,17.23,42.36,42.43S491.59,323,467.4,322.2s-42.63-18.11-42.35-42.43S443,237.39,467.4,237.34Zm0,19c13,0,19.05,9.81,18.78,23.7S480,303.46,467.4,303.16s-18.71-11.29-18.61-23.86,5.64-22.88,18.61-22.91Z" transform="translate(-173.04 -236.8)"/></g></g></svg>