<?xml version="1.0" standalone="no"?>
<!DOCTYPE svg PUBLIC "-//W3C//DTD SVG 20010904//EN"
 "http://www.w3.org/TR/2001/REC-SVG-20010904/DTD/svg10.dtd">
<svg version="1.0" xmlns="http://www.w3.org/2000/svg"
 width="650.000000pt" height="650.000000pt" viewBox="0 0 650.000000 650.000000"
 preserveAspectRatio="xMidYMid meet">

<g transform="translate(0.000000,650.000000) scale(0.100000,-0.100000)"
fill="#000000" stroke="none">
<path d="M1650 5970 c0 -5 -6 -10 -12 -10 -32 0 -138 -62 -182 -106 -44 -44
-106 -150 -106 -181 0 -7 -4 -13 -10 -13 -7 0 -10 -863 -10 -2570 0 -1707 3
-2570 10 -2570 6 0 10 -6 10 -12 0 -32 62 -138 106 -182 44 -44 150 -106 182
-106 6 0 12 -4 12 -10 0 -7 540 -10 1600 -10 1060 0 1600 3 1600 10 0 6 6 10
13 10 31 0 137 62 181 106 44 44 106 150 106 182 0 6 5 12 10 12 7 0 10 863
10 2570 0 1707 -3 2570 -10 2570 -5 0 -10 6 -10 13 0 31 -62 137 -106 181 -44
44 -150 106 -181 106 -7 0 -13 5 -13 10 0 7 -540 10 -1600 10 -1060 0 -1600
-3 -1600 -10z m1634 -146 c19 -18 21 -55 4 -72 -7 -7 -24 -12 -38 -12 -14 0
-31 5 -38 12 -28 28 -2 88 38 88 10 0 26 -7 34 -16z m214 -226 c17 -17 15 -48
-5 -70 -15 -16 -36 -18 -241 -18 -196 0 -228 2 -244 17 -21 18 -24 53 -6 71 9
9 78 12 248 12 170 0 239 -3 248 -12z m-620 -10 c30 -30 -3 -77 -40 -57 -18 9
-25 49 -11 62 10 11 38 8 51 -5z m1802 -2378 l0 -2120 -1430 0 -1430 0 0 2120
0 2120 1430 0 1430 0 0 -2120z m-1298 -2287 c60 -34 112 -96 128 -151 18 -65
12 -152 -14 -207 -27 -58 -63 -94 -126 -127 -65 -33 -176 -33 -243 2 -58 29
-102 77 -130 139 -30 67 -21 183 19 248 31 50 103 106 158 123 57 17 150 5
208 -27z"/>
</g>
</svg>
