<?xml version="1.0" standalone="no"?><!DOCTYPE svg PUBLIC "-//W3C//DTD SVG 20010904//EN" "http://www.w3.org/TR/2001/REC-SVG-20010904/DTD/svg10.dtd"><svg version="1.0" xmlns="http://www.w3.org/2000/svg" width="650.000000pt" height="650.000000pt" viewBox="0 0 650.000000 650.000000" preserveAspectRatio="xMidYMid meet"><g transform="translate(0.000000,650.000000) scale(0.100000,-0.100000)" fill="#000000" stroke="none"><path d="M909 5000 c-220 -27 -416 -124 -571 -282 -85 -86 -100 -118 -73 -148 17 -19 33 -20 359 -20 l341 -1 144 -236 c79 -130 145 -243 148 -252 2 -9 -63 -124 -144 -256 l-148 -240 -348 -5 c-368 -5 -366 -5 -367 -52 0 -27 88 -127 174 -195 469 -374 1169 -221 1440 315 l26 52 1339 0 1339 0 37 -67 c173 -319 484 -505 840 -505 229 0 426 71 606 217 72 57 159 158 159 183 -1 47 2 47 -367 52 l-348 5 -148 240 c-81 132 -146 247 -144 256 2 8 69 122 148 252 l144 236 342 1 c297 0 344 2 357 16 25 24 19 48 -23 101 -74 94 -197 188 -324 249 -245 116 -559 116 -804 0 -192 -91 -353 -247 -447 -433 l-26 -53 -1340 0 -1340 0 -26 53 c-94 186 -255 342 -447 433 -143 68 -356 103 -508 84z"/><path d="M3032 2580 c-21 -20 -22 -29 -22 -185 l0 -165 -883 0 -884 0 -104 66 -104 66 -392 -78 -393 -79 0 -157 c0 -87 1 -158 3 -158 1 0 171 -34 377 -75 206 -41 383 -75 395 -75 11 0 63 27 114 60 l95 60 888 0 888 0 0 -165 0 -165 27 -17 c22 -14 48 -18 129 -18 110 0 136 10 148 60 l6 24 53 -24 c137 -63 75 -60 1272 -60 1225 0 1138 -5 1304 76 230 113 345 357 286 607 -23 96 -61 160 -144 243 -86 86 -160 127 -285 159 -77 19 -111 20 -1161 20 -1038 0 -1085 -1 -1158 -19 -41 -11 -94 -29 -117 -41 -42 -21 -60 -20 -60 6 0 8 -9 23 -20 34 -18 18 -33 20 -128 20 -95 0 -111 -2 -130 -20z m2808 -190 l0 -60 -1095 0 -1095 0 0 53 c0 30 3 57 7 60 3 4 496 7 1095 7 l1088 0 0 -60z m0 -350 l0 -60 -1095 0 -1095 0 0 60 0 60 1095 0 1095 0 0 -60z m0 -340 l0 -60 -1095 0 -1095 0 0 53 c0 30 3 57 7 60 3 4 496 7 1095 7 l1088 0 0 -60z"/></g></svg>
