<?xml version="1.0" standalone="no"?><!DOCTYPE svg PUBLIC "-//W3C//DTD SVG 20010904//EN""http://www.w3.org/TR/2001/REC-SVG-20010904/DTD/svg10.dtd"><svg version="1.0" xmlns="http://www.w3.org/2000/svg" width="650.000000pt" height="650.000000pt" viewBox="0 0 650.000000 650.000000" preserveAspectRatio="xMidYMid meet"><g transform="translate(0.000000,650.000000) scale(0.100000,-0.100000)"fill="#000000" stroke="none"><path d="M393 6126 c-103 -33 -191 -121 -223 -223 -25 -82 -25 -134 0 -217 17 -54 32 -78 78 -126 49 -51 95 -79 334 -210 269 -147 278 -153 287 -188 49 -184 731 -2925 730 -2934 0 -7 -97 -89 -216 -182 -175 -137 -219 -177 -234 -210 -17 -37 -19 -70 -19 -337 0 -291 0 -297 23 -340 16 -29 40 -54 72 -74 l48 -30 303 -3 303 -3 -44 -65 c-59 -85 -79 -155 -73 -254 8 -145 93 -270 226 -333 61 -29 75 -32 167 -32 88 0 107 3 158 27 76 36 130 79 168 134 95 138 92 329 -6 466 l-36 50 243 -6 c134 -4 596 -11 1028 -16 432 -5 912 -13 1066 -16 l282 -6 -29 -47 c-41 -65 -62 -174 -50 -252 34 -211 207 -349 422 -337 242 14 415 252 355 487 -9 35 -25 79 -36 96 -11 18 -20 35 -20 39 0 3 85 6 189 6 110 0 202 4 218 11 38 14 92 67 109 106 38 88 2 196 -81 248 l-48 30 -2236 32 c-1230 17 -2255 32 -2278 32 l-43 1 0 103 0 104 162 127 c153 122 163 128 197 122 47 -7 3182 -38 3501 -34 245 3 245 3 301 31 65 31 132 99 159 160 25 55 500 2125 500 2176 0 55 -35 159 -69 204 -68 89 -166 137 -281 137 -130 0 -250 -72 -305 -183 -17 -36 -89 -331 -229 -940 -112 -488 -205 -889 -207 -890 -6 -4 -3024 25 -3028 28 -2 2 -169 668 -372 1480 -203 812 -379 1495 -390 1517 -42 82 -90 116 -458 318 -195 107 -375 203 -400 212 -55 20 -160 22 -218 4z"/><path d="M3343 5564 c-51 -19 -108 -79 -122 -131 -7 -24 -11 -211 -11 -520 l0 -483 -191 0 c-209 0 -246 -8 -268 -56 -15 -33 -14 -58 2 -97 15 -33 786 -1077 841 -1136 74 -80 196 -82 268 -5 50 55 831 1109 844 1141 17 39 18 64 3 97 -22 48 -59 56 -268 56 l-191 0 0 483 c0 535 -1 545 -63 605 -61 59 -83 62 -461 61 -275 0 -349 -3 -383 -15z"/></g></svg>
